<svg xmlns="http://www.w3.org/2000/svg" viewBox="0 0 128 128">
  <defs>
    <linearGradient id="g" x1="10" y1="8" x2="118" y2="120" gradientUnits="userSpaceOnUse">
      <stop stop-color="#ff5a5f"/>
      <stop offset="1" stop-color="#e60012"/>
    </linearGradient>
    <filter id="s" x="-20%" y="-20%" width="140%" height="140%"><feDropShadow dx="0" dy="6" stdDeviation="5" flood-opacity=".24"/></filter>
  </defs>
  <rect x="6" y="6" width="116" height="116" rx="32" fill="#0b1220"/>
  <path d="M64 20c24.3 0 44 19.7 44 44s-19.7 44-44 44S20 88.3 20 64s19.7-44 44-44Z" fill="url(#g)" filter="url(#s)"/>
  <path d="M54 43.5c-4.8-3-10.9.5-10.9 6.2v28.6c0 5.7 6.1 9.2 10.9 6.2l25.5-14.3c5.1-2.9 5.1-10.2 0-13.1L54 43.5Z" fill="#fff"/>
  <circle cx="92" cy="35" r="8" fill="#fff" opacity=".95"/>
</svg>
